<svg xmlns="http://www.w3.org/2000/svg" width="1019.484" height="436.681"  xmlns:v="https://vecta.io/nano"><path d="M223.77 243.614a9.75 9.75 0 0 0-15.367-8.038 9.75 9.75 0 0 0-4.04 9.32l-28.014 36.686c-2.444 4.888-1.721 10.765 1.836 14.914l2.198 2.564 10.083-2.017 11.428-10.083-1.345-11.428 14.117-22.183-.018-.016c5.128-.327 9.121-4.58 9.124-9.719z" fill="#ffb9b9"/><path fill="#ffb8b8" d="M30.041 422.968l-4.573-16.984L88.8 380.265l6.749 25.066-65.508 17.637z"/><path d="M14.744 431.732L0 376.97l.693-.187a22.08 22.08 0 0 1 27.054 15.575v.001l9.005 33.447z" fill="#2f2e41"/><path fill="#ffb8b8" d="M117.278 420.254l-14.224-10.344 33.131-59.789 20.994 15.267-39.901 54.866z"/><path d="M110.879 436.681l-45.866-33.355.422-.58a22.08 22.08 0 0 1 30.835-4.87l.001.001 28.013 20.372zm127.313-99.977l-35.795-34.773a18.08 18.08 0 0 0-23.668-1.322l-67.586 75.084 6.05 9.411 64.533-43.694 43.694 57.139 41.678-20.838z" fill="#2f2e41"/><path d="M222.731 344.099l-26.217-2.017-18.986-4.603c-2.196-3.426-6.289-5.128-10.267-4.27s-7.005 4.096-7.594 8.123 1.385 7.996 4.951 9.957 7.975 1.501 11.06-1.153l-.003.014 11.428 4.706 49.072 16.806 6.05-4.706z" fill="#ffb9b9"/><path fill="#2f2e41" d="M285.92 416.699l-14.789 9.411h-17.478l-81.338-30.25-118.983 21.511-3.361-25.545 108.9-47.727 95.455 31.594 31.594 41.006z"/><circle cx="254.326" cy="227.132" r="26.217" fill="#ffb9b9"/><path d="M322.159 331.804a150.63 150.63 0 0 1-7.388 46.592l-1.963 6.037-9.411 43.022-10.083 2.689-7.394-9.411-14.789-10.755-10.756-17.478-12.1-20.167-10.083-50.416-38.317-21.511-12.772-2.017 2.689-7.394 11.428-15.461 11.428-1.344 3.361-2.689 2.689 1.344 14.823 5.71 48.057-20.304 7.031 1.15 24.2 20.167a150.5 150.5 0 0 1 9.351 52.238z" fill="#ccc"/><path opacity=".1" d="M314.825 325.949l-25.544 16.805-38.128 34.377-2.877-4.799-8.067-40.333h2.017l20.839-38.316 51.76 32.266z"/><path fill="#ccc" d="M263.065 289.649l-20.839 38.316-12.1 13.445-10.755 2.689 28.905 31.594 41.005-36.972 25.544-16.806-51.76-32.266z"/><path d="M233.935 207.639l-2.841 1.093c-.871-.59-1.472-1.501-1.671-2.534s.021-2.102.61-2.973q.023-.034.047-.067l-5.249-.246a39.64 39.64 0 0 1 59.173-4.77c.239-.823 2.844.778 3.908 2.402.357-1.339 2.8 5.135 3.664 9.712.4-1.524 1.938.936.591 3.297.854-.125 1.239 2.059.578 3.276.934-.439.777 2.169-.236 3.911 1.333-.118-.114 27.331-20.114 25.331-1.392-6.397-1-6-2.64-14.226-.763-.81-1.599-1.548-2.433-2.284l-4.513-3.983c-5.247-4.632-10.021-10.348-17.011-12.08-4.804-1.19-7.841-1.458-5.223-6.872-2.365.987-4.574 2.455-6.961 3.372.032-.756.366-1.603.319-2.36z" fill="#2f2e41"/><circle cx="267.434" cy="230.157" r="4.706" fill="#ffb9b9"/><path fill="#e6e6e6" d="M46.562 140.585l1.436-21.562 21.562 1.436-1.436 21.562z"/><path d="M34.086 130.472l26.183 1.744-1.744 26.183-26.183-1.744zm24.969 2.806l-23.906-1.592-1.592 23.906 23.906 1.592z" fill="#ccc"/><path fill="#e6e6e6" d="M148.722 59.623l21.128-4.54 4.54 21.128-21.128 4.54z"/><path d="M155.021 44.85l5.513 25.655-25.655 5.513-5.513-25.655zm4.157 24.779l-5.033-23.424-23.424 5.033 5.033 23.424z" fill="#ccc"/><path fill="#e6e6e6" d="M131.878 171.32l15.772-14.773 14.773 15.772-15.772 14.773z"/><path d="M163.557 154.337l-19.152 17.939-17.939-19.152 19.152-17.939zm-19.099 16.326l17.486-16.379-16.379-17.486-17.486 16.379z" fill="#ccc"/><path d="M963.277 0H323.894a17.6 17.6 0 0 0-17.599 17.598v356.252a17.6 17.6 0 0 0 17.599 17.599h639.383c9.719 0 17.599-7.879 17.599-17.599V17.598C980.876 7.879 972.996 0 963.277 0z" fill="#3f3d56"/><g fill="#fff"><path d="M329.89 31.101h627.391v353.913H329.89z"/><circle cx="643.049" cy="15.014" r="6.435"/></g><path fill="#f2f2f2" d="M777.858 385.015H329.89V31.102l447.968 353.913z"/><circle cx="428.058" cy="298.224" r="60.307" fill="#7289da"/><path d="M441.483 343.551c-41.43 0-75.016-33.586-75.016-75.016s33.586-75.016 75.016-75.016 75.016 33.586 75.016 75.016c0 19.895-7.903 38.976-21.972 53.044a75.02 75.02 0 0 1-53.044 21.972zm0-149.051c-40.888 0-74.035 33.147-74.035 74.035s33.147 74.035 74.035 74.035 74.035-33.147 74.035-74.035c0-19.635-7.8-38.467-21.684-52.351S461.118 194.5 441.483 194.5zm311.954 20.47h58.605v12.246h-58.605zm-55.446-66.343h169.497v5.248H697.991zm0 20.619h169.497v5.248H697.991zm0 20.62h169.497v5.248H697.991z" fill="#3f3d56"/><path fill="#7289da" d="M888.401 52.282h24.492v24.492h-24.492z"/><path d="M924.264 88.145h-29.74v-29.74h29.74zm-28.447-1.293h27.154V59.698h-27.154z" fill="#ccc"/><path d="M998.491 378.58h-61.229v-4.412c0-.232-.092-.454-.256-.618s-.386-.256-.618-.256h-20.993c-.232 0-.454.092-.619.256s-.256.387-.256.618v4.412h-13.12v-4.412c0-.232-.092-.454-.256-.619s-.387-.256-.619-.256h-20.993c-.232 0-.454.092-.619.256s-.256.387-.256.619h0v4.412h-13.121v-4.412c0-.232-.092-.454-.256-.619s-.387-.256-.619-.256h-20.993c-.232 0-.454.092-.619.256s-.256.387-.256.619h0v4.412h-13.121v-4.412c0-.232-.092-.454-.256-.619s-.387-.256-.619-.256h-20.993c-.232 0-.454.092-.618.256s-.256.386-.256.618v4.412h-13.121v-4.412c0-.232-.092-.454-.256-.619s-.387-.256-.619-.256h-20.993c-.232 0-.454.092-.619.256s-.256.387-.256.619h0v4.412h-13.121v-4.412c0-.232-.092-.454-.256-.619s-.387-.256-.619-.256H736.08c-.232 0-.454.092-.619.256s-.256.387-.256.619h0v4.412h-13.121v-4.412c0-.232-.092-.454-.256-.619s-.387-.256-.619-.256H556.766c-.232 0-.454.092-.619.256s-.256.387-.256.619h0v4.412H542.77v-4.412c0-.232-.092-.454-.256-.619s-.387-.256-.619-.256h-20.993c-.232 0-.454.092-.619.256s-.256.387-.256.619h0v4.412h-13.121v-4.412c0-.232-.092-.454-.256-.618s-.386-.256-.618-.256H485.04c-.232 0-.454.092-.619.256s-.256.387-.256.619h0v4.412h-13.121v-4.412c0-.232-.092-.454-.256-.619s-.387-.256-.619-.256h-20.993c-.232 0-.454.092-.619.256s-.256.387-.256.619h0v4.412h-13.121v-4.412c0-.232-.092-.454-.256-.619s-.387-.256-.619-.256h-20.993c-.232 0-.454.092-.619.256s-.256.387-.256.619h0v4.412h-13.121v-4.412c0-.232-.092-.454-.256-.619s-.387-.256-.619-.256h-20.993c-.483 0-.875.392-.875.875v4.412h-13.121v-4.412c0-.232-.092-.454-.256-.618s-.387-.256-.618-.256h-20.993c-.483 0-.875.392-.875.875h0v4.412h-40.236c-11.594 0-20.993 9.399-20.993 20.993v9.492c0 11.594 9.399 20.993 20.993 20.993h698.014c11.594 0 20.993-9.399 20.993-20.993v-9.492c0-5.568-2.212-10.907-6.149-14.844s-9.277-6.149-14.844-6.149z" fill="#3f3d56"/></svg>