<svg xmlns="http://www.w3.org/2000/svg" xmlns:xlink="http://www.w3.org/1999/xlink" width="737.666" height="594" xmlns:v="https://vecta.io/nano"><style><![CDATA[.B{fill:#7289da}.C{fill:#3f3d56}.D{fill:#2f2e41}.E{fill:#ffb8b8}]]></style><g class="C"><use xlink:href="#B"/><path d="M269.284 454.609c-4.046-7.168-3.094-15.747-1.639-23.499 1.519-8.092 3.511-16.309 1.788-24.539-.782-3.996-2.631-7.705-5.353-10.734-1.311-1.423-3.428.702-2.121 2.121 5.089 5.527 5.679 13.545 4.853 20.665-.973 8.399-3.733 16.583-3.39 25.117a27.2 27.2 0 0 0 3.272 12.382 1.5 1.5 0 0 0 2.027.495 1.5 1.5 0 0 0 .564-2.009z"/></g><path d="M291 477.5h-51c-2.484-.003-4.497-2.016-4.5-4.5v-14.98a14.54 14.54 0 0 1 14.52-14.52h7.48a1.5 1.5 0 0 0 1.5-1.5v-7c.002-1.38 1.12-2.498 2.5-2.5h8c1.38.002 2.498 1.12 2.5 2.5v7a1.5 1.5 0 0 0 1.5 1.5h7.48a14.54 14.54 0 0 1 14.52 14.52V473c-.003 2.484-2.016 4.497-4.5 4.5z" fill="#ccc"/><g class="B"><use xlink:href="#C"/><use xlink:href="#D"/></g><g class="C"><use xlink:href="#B" x="-94" y="-360"/><path d="M175.284 94.609c-4.046-7.168-3.094-15.747-1.639-23.499 1.519-8.092 3.511-16.309 1.788-24.539-.782-3.996-2.631-7.705-5.353-10.734-1.311-1.423-3.428.702-2.121 2.121 5.089 5.527 5.679 13.545 4.853 20.665-.974 8.399-3.733 16.583-3.39 25.117a27.2 27.2 0 0 0 3.272 12.382 1.5 1.5 0 0 0 2.027.495 1.5 1.5 0 0 0 .564-2.009z"/></g><path d="M197 117.5h-51c-2.484-.003-4.497-2.016-4.5-4.5V98.02a14.54 14.54 0 0 1 14.52-14.52h7.48A1.5 1.5 0 0 0 165 82v-7c.002-1.38 1.12-2.498 2.5-2.5h8c1.38.002 2.498 1.12 2.5 2.5v7a1.5 1.5 0 0 0 1.5 1.5h7.48a14.54 14.54 0 0 1 14.52 14.52V113c-.003 2.484-2.016 4.497-4.5 4.5z" fill="#ccc"/><g class="B"><use xlink:href="#C" x="-94" y="-360"/><use xlink:href="#D" x="-94" y="-360"/><path d="M32 272h41v15H32zm0 49h41v15H32z"/></g><g class="C"><path d="M323 593H17c-9.384-.011-16.989-7.616-17-17V17C.011 7.616 7.616.011 17 0h306c9.384.011 16.989 7.616 17 17v559c-.011 9.384-7.616 16.989-17 17zM17 2A15.02 15.02 0 0 0 2 17v559a15.02 15.02 0 0 0 15 15h306a15.02 15.02 0 0 0 15-15V17a15.02 15.02 0 0 0-15-15z"/><path d="M1 115.453h338v2H1zm0 120.031h338v2H1zm0 120.032h338v2H1zm0 120.031h338v2H1z"/><path d="M70 358H36c-2.76-.003-4.997-2.24-5-5v-97c.003-2.76 2.24-4.997 5-5h34c2.76.003 4.997 2.24 5 5v97c-.003 2.76-2.24 4.997-5 5zM36 253c-1.656.002-2.998 1.344-3 3v97c.002 1.656 1.344 2.998 3 3h34c1.656-.002 2.998-1.344 3-3v-97c-.002-1.656-1.344-2.998-3-3z"/></g><path d="M95 272h41v15H95zm0 49h41v15H95z" class="B"/><path d="M133 358H99c-2.76-.003-4.997-2.24-5-5v-97c.003-2.76 2.24-4.997 5-5h34c2.76.003 4.997 2.24 5 5v97c-.003 2.76-2.24 4.997-5 5zM99 253c-1.656.002-2.998 1.344-3 3v97c.002 1.656 1.344 2.998 3 3h34c1.656-.002 2.998-1.344 3-3v-97c-.002-1.656-1.344-2.998-3-3z" class="C"/><path d="M195 151h41v15h-41zm0 49h41v15h-41z" class="B"/><use xlink:href="#E" class="C"/><path d="M258 151h41v15h-41zm0 49h41v15h-41z" class="B"/><use xlink:href="#E" x="63" class="C"/><path d="M147.91 277.464l38.38-14.422 5.276 14.041-38.38 14.422zm17.236 45.868l38.38-14.422 5.276 14.041-38.38 14.422z" class="B"/><path d="M180.144 356.883a5.01 5.01 0 0 1-4.678-3.244l-34.12-90.801c-.968-2.585.339-5.465 2.922-6.439l31.827-11.959a5 5 0 0 1 6.439 2.922l34.12 90.801c.968 2.585-.339 5.465-2.922 6.439h0l-31.827 11.959c-.563.213-1.16.322-1.761.322zm-2.289-110.765c-.361 0-.719.066-1.057.193l-31.827 11.959c-1.55.584-2.334 2.313-1.753 3.864l34.12 90.801a3 3 0 0 0 3.864 1.753l31.827-11.959c1.55-.584 2.334-2.313 1.753-3.864l-34.12-90.801c-.44-1.169-1.557-1.944-2.807-1.946z" class="C"/><path d="M9.91 158.464l38.38-14.422 5.276 14.041-38.38 14.422zm17.236 45.868l38.38-14.422 5.276 14.041-38.38 14.422z" class="B"/><path d="M42.144 237.883a5.01 5.01 0 0 1-4.678-3.244l-34.12-90.801c-.968-2.585.339-5.465 2.922-6.439l31.827-11.959a5 5 0 0 1 6.439 2.922l34.12 90.801c.968 2.585-.339 5.465-2.922 6.439h0l-31.827 11.959c-.563.213-1.16.322-1.761.322zm-2.289-110.765c-.361 0-.719.066-1.057.193L6.971 139.271c-1.55.584-2.334 2.313-1.753 3.864l34.12 90.801a3 3 0 0 0 3.864 1.753l31.827-11.959c1.55-.584 2.334-2.313 1.753-3.864l-34.12-90.801c-.44-1.169-1.557-1.944-2.807-1.946z" class="C"/><circle cx="627" cy="219" r="31" class="D"/><path d="M489.28 360.471c2.965 1.148 6.286.925 9.069-.611s4.745-4.225 5.355-7.345l85.237-53.778-15.514-17.467-78.943 58.391c-5.429-.693-10.518 2.785-11.845 8.094s1.526 10.773 6.642 12.716z" class="E"/><path d="M571.146 313.034c-1.533.003-2.962-.775-3.793-2.063l-9.871-15.339a4.5 4.5 0 0 1 1.148-6.082l33.03-23.873a14.79 14.79 0 0 1 23.422 11.036 14.79 14.79 0 0 1-6.792 13.41l-34.729 22.205c-.721.462-1.559.708-2.415.707z" class="D"/><path d="M585.894 580.85l-12.259-.001-5.833-47.288 18.095.001-.003 47.288z" class="E"/><path d="M564.877 577.346h23.644a0 0 0 0 1 0 0v14.887a0 0 0 0 1 0 0h-38.531a0 0 0 0 1 0 0h0a14.887 14.887 0 0 1 14.887-14.887z" class="D"/><path d="M643.128 571.684l-11.804 3.314-18.398-43.951 17.421-4.891 12.781 45.528z" class="E"/><path d="M621.947 573.992l22.764-6.39 4.023 14.333-37.097 10.414c-1.067-3.801-.58-7.871 1.353-11.313s5.155-5.976 8.956-7.043z" class="D"/><path d="M676.16 499.113l-47.596-56.171 28.881-35.044a4.5 4.5 0 0 1 6.961.021l43.702 53.634z" class="B"/><path d="M630.484 443.36h0a15.94 15.94 0 0 1 2.586-3.453l27.567-27.948c1.08-1.101 2.535-1.754 4.076-1.83 3.15-.149 8.316.17 9.756 3.625l-37.218 30.451z" fill="#f2f2f2"/><path d="M677.814 510.999a11.43 11.43 0 0 1-5.958-1.887l-.132-.136-43.592-66.669 7.233-.699 38.767-30.238a4.5 4.5 0 0 1 6.522 1.067l42.376 64.138c1.353 2.061.802 4.826-1.238 6.211l-41.006 27.65a7.95 7.95 0 0 1-2.973.563z" class="B"/><path d="M662.397 465.394a2.5 2.5 0 0 1-2.077-1.103l-5.008-7.438c-.769-1.146-.466-2.698.678-3.471l25.691-17.296c1.146-.768 2.697-.465 3.47.678l5.008 7.438c.769 1.146.466 2.698-.678 3.471l-25.691 17.296a2.49 2.49 0 0 1-1.393.425z" class="C"/><path d="M565.862 573.698a5.48 5.48 0 0 1-5.439-5.004l-14.328-174.927c-1.334-28.029 21.993-72.371 22.229-72.815l.161-.305 11.53 1.44v1.341l10.974 1.291 21.238 2.056 6.08 74.318 2.688 50.402 25.259 102.943c.595 2.372-.823 4.783-3.186 5.414l-21.983 5.995a4.52 4.52 0 0 1-5.512-3.109l-20.698-72.707a1.5 1.5 0 0 0-2.942.457l2.189 70.896c.023 1.471-.563 2.886-1.617 3.912-5.039 4.732-18.354 7.259-25.841 8.344a5.58 5.58 0 0 1-.803.058z" class="D"/><path d="M631.918 261.392c-3.488-3.636-26.473 1.361-31.576 6.718l-34.936 57.106 57.778 10.749 12.765-72.559z" class="B"/><path d="M616.774 406.479a11.25 11.25 0 0 1-3.657-.609c-3.357-1.151-7.471-2.356-12.228-3.579-20.834-5.357-28.189-22.51-21.862-50.98l.16-.723a210.74 210.74 0 0 1 32.957-75.263l2.45-3.52a26.4 26.4 0 0 1 27.045-10.756c9.374 1.934 14.407 4.735 14.96 8.328 1.085 7.05-19.854 92.27-28.907 128.582-1.248 5.012-5.753 8.527-10.918 8.52zm-71.77-10.94c-.545 0-1.086-.084-1.605-.25l-6.753-2.16a5.27 5.27 0 0 1-3.24-7.082l35.831-84.104a78.69 78.69 0 0 1 34.124-37.827h0a1.84 1.84 0 0 1 1.461-.137c.446.142.811.466 1.005.892 4.214 9.271-18.722 53.144-37.152 88.396-9.437 18.051-17.587 33.641-18.515 38.086-.51 2.44-2.662 4.188-5.156 4.187z" class="D"/><path d="M655.859 414.703c2.548-1.902 4.123-4.834 4.3-8.008s-1.059-6.264-3.379-8.439l-.285-100.784-23.04 3.866 7.536 97.902c-3.471 4.232-3.228 10.39.565 14.335s9.937 4.43 14.302 1.128z" class="E"/><path d="M637.099 322.477a4.5 4.5 0 0 1-4.489-4.203l-2.68-40.666a14.81 14.81 0 0 1 13.784-15.73 14.79 14.79 0 0 1 15.761 14.626l.364 41.22a4.51 4.51 0 0 1-4.447 4.54l-18.239.214z" class="D"/><circle cx="620.614" cy="227.016" r="24.561" class="E"/><path d="M641.036 244.202c1.832-5.83 3.514-12.703-.112-17.623-2.612-3.545-7.302-4.917-11.701-5.113s-8.81.549-13.199.2-9.028-2.081-11.258-5.878c-2.891-4.923-.442-11.704 4.206-15.02s10.788-3.778 16.445-3.006c7.158.85 13.888 3.86 19.292 8.63 5.258 4.853 8.685 11.848 8.533 19.002s-4.165 14.278-10.559 17.49m-7.771-52.35c-5.88-1.811-8.592-9.585-5.962-15.147s9.351-8.475 15.454-7.7 11.481 4.69 15.191 9.599 5.947 10.759 7.812 16.622 3.416 11.853 5.963 17.453a54.17 54.17 0 0 0 44.45 30.943c4.129.299 8.414.085 12.177-1.641s6.919-5.205 7.34-9.324c2.142 14.629-6.369 30.176-19.846 36.255s-30.765 2.168-40.313-9.12c-9.331-11.031-10.776-26.606-10.552-41.052.062-3.962.208-7.998-.887-11.806s-3.685-7.429-7.458-8.638c-3.044-.976-6.341-.272-9.462.419s-6.435 1.358-9.457.315-5.455-4.479-4.237-7.435" class="D"/><path d="M732.083 594h-264a1 1 0 1 1 0-2h264a1 1 0 1 1 0 2z" fill="#ccc"/><defs ><path id="B" d="M268.426 450.574c-4.614-11.059-.478-23.831 9.743-30.085 1.647-1.002.141-3.597-1.514-2.59a27.01 27.01 0 0 0-10.819 34.19c.757 1.77 3.342.243 2.59-1.514z"/><path id="C" d="M266.284 387.54c1.074 5.699-.256 10.733-2.969 11.244s-5.784-3.694-6.858-9.393 2.229-15.175 2.229-15.175 6.525 7.625 7.598 13.323z"/><path id="D" d="M286.877 414.052c-3.4 4.697-7.97 7.193-10.207 5.573s-1.294-6.74 2.107-11.437 12.553-8.814 12.553-8.814-1.052 9.98-4.452 14.677z"/><path id="E" d="M233 237h-34c-2.76-.003-4.997-2.24-5-5v-97c.003-2.76 2.24-4.997 5-5h34c2.76.003 4.997 2.24 5 5v97c-.003 2.76-2.24 4.997-5 5zm-34-105c-1.656.002-2.998 1.344-3 3v97c.002 1.656 1.344 2.998 3 3h34c1.656-.002 2.998-1.344 3-3v-97c-.002-1.656-1.344-2.998-3-3z"/></defs></svg>