<svg xmlns="http://www.w3.org/2000/svg" xmlns:xlink="http://www.w3.org/1999/xlink" width="926.622" height="600.085" xmlns:v="https://vecta.io/nano"><g fill="#ffb8b8"><circle cx="150.534" cy="254.872" r="24.561"/><path d="M67.543 549.197l6.219 10.566 43.712-18.96-9.179-15.593-40.752 23.987z"/></g><path d="M69.406 544.472l12.248 20.808c2.07 3.517 2.658 7.712 1.635 11.662s-3.574 7.333-7.09 9.402l-.431.254-20.052-34.067z" fill="#2f2e41"/><path fill="#ffb8b8" d="M139.6 587.26l12.26-.001 5.832-47.288-18.094.001.002 47.288z"/><g fill="#2f2e41"><path d="M136.473 583.257l24.145-.001a15.39 15.39 0 0 1 10.88 4.506c2.886 2.885 4.507 6.799 4.507 10.88v.5l-39.531.001zM90.311 558.61c-1.431.001-2.777-.68-3.624-1.833l-11.824-16.059a4.5 4.5 0 0 1 1.125-6.41l52.614-35.142-31.747-83.475 67.889 5.603 2.287 71.733a36.05 36.05 0 0 1-18.045 32.424L92.56 558.005c-.683.396-1.459.604-2.248.605z"/><path d="M139.97 577.659a4.5 4.5 0 0 1-4.489-4.34l-2.488-69.882 30.808-1.623-2.453 70.384a4.49 4.49 0 0 1-4.2 4.333l-16.873 1.118-.306.01z"/></g><path d="M172.602 435.171c-7.838 0-35.217-8.816-44.721-11.959-1.422 1.138-9.233 6.979-18.351 5.911-5.626-.66-10.579-3.845-14.721-9.466-9.147-12.414 2.151-65.651 13.239-108.126 4.62-17.843 22.526-28.836 40.529-24.88h0a34.57 34.57 0 0 1 26.088 25.378c2.088 8.498.292 18.494-1.02 25.794-.616 3.432-1.104 6.143-.937 7.475.644 5.148 4.219 85.892 1.92 89.34-.245.367-.953.533-2.025.533z" fill="#7289da"/><path d="M143.927 435.314c2.55-1.898 4.128-4.829 4.31-8.003s-1.052-6.266-3.369-8.443l.485-97.844-23.045 3.837 6.769 94.97c-3.476 4.227-3.24 10.386.548 14.336s9.932 4.442 14.301 1.145z" fill="#ffb8b8"/><path d="M149.257 383.861h-24.822c-2.466-.007-4.47-1.993-4.5-4.459l-.609-67.292c-.057-6.332 3.29-12.207 8.767-15.385s12.238-3.17 17.707.022 8.802 9.074 8.73 15.406l-.773 67.26c-.037 2.461-2.038 4.44-4.5 4.448z" fill="#7289da"/><path d="M144.28 279.331c-11.245.021-21.854-8.868-23.803-19.943a28.67 28.67 0 0 1 .919-13.014c2.861-9.696 9.78-17.678 18.971-21.887s19.754-4.233 28.965-.065c3.008 1.361 5.971 3.316 7.349 6.317s.515 7.195-2.498 8.546c-1.969.882-4.44.449-6.187 1.716-2.509 1.819-1.863 5.691-.743 8.581s2.388 6.387.509 8.852c-1.75 2.297-5.249 2.226-8.004 1.361s-5.476-2.313-8.349-2.018c-4.19.43-7.202 4.598-7.759 8.773s.755 8.349 2.05 12.357z" fill="#2f2e41"/><path d="M259 600.085H1a1 1 0 1 1 0-2h258a1 1 0 1 1 0 2z" fill="#ccc"/><path d="M910.122 434.548H269.283c-9.108-.01-16.49-7.392-16.5-16.5V22.894c.007-6.673 5.415-12.081 12.088-12.088h649.454c6.788.008 12.29 5.509 12.297 12.297v394.945c-.01 9.108-7.392 16.49-16.5 16.5z" fill="#f2f2f2"/><path d="M889.402 413.716H292.157c-8.755 0-15.878-6.67-15.878-14.868V54.742c0-6.08 5.278-11.027 11.766-11.027h605.274c6.595 0 11.961 5.028 11.961 11.208v343.923c0 8.198-7.123 14.868-15.878 14.868z" fill="#fff"/><path d="M926.392 24.95h-673.84v-8.4c.013-9.139 7.421-16.542 16.56-16.55h640.72c9.139.008 16.547 7.411 16.56 16.55z" fill="#3f3d56"/><g fill="#fff"><circle cx="282.647" cy="12.5" r="4.283"/><circle cx="298.906" cy="12.5" r="4.283"/><circle cx="315.165" cy="12.5" r="4.283"/></g><g fill="#ccc"><use xlink:href="#B"/><path d="M721.757 118.954H604.949a6.57 6.57 0 0 1-6.566-6.566 6.57 6.57 0 0 1 6.566-6.566h116.808a6.57 6.57 0 0 1 6.566 6.566 6.57 6.57 0 0 1-6.566 6.566zm0 24.883H518.552a6.57 6.57 0 0 1-6.566-6.566 6.57 6.57 0 0 1 6.566-6.566h203.205a6.57 6.57 0 0 1 6.566 6.566 6.57 6.57 0 0 1-6.566 6.566zM576.61 93.727H459.802a6.57 6.57 0 0 1-6.558-6.566 6.57 6.57 0 0 1 6.558-6.566H576.61c2.348-.003 4.518 1.248 5.693 3.281s1.175 4.538 0 6.571-3.345 3.284-5.693 3.281z"/><use xlink:href="#C"/><path d="M492.979 143.837h-33.176a6.57 6.57 0 0 1-6.558-6.566 6.57 6.57 0 0 1 6.558-6.566h33.176c2.348-.003 4.518 1.248 5.693 3.281s1.175 4.538 0 6.571-3.345 3.284-5.693 3.281zm83.631 208.117H459.802a6.57 6.57 0 0 1-6.566-6.566 6.57 6.57 0 0 1 6.566-6.566H576.61c2.346 0 4.514 1.251 5.686 3.283a6.57 6.57 0 0 1-5.686 9.849zm145.147 0H604.949a6.57 6.57 0 0 1-6.566-6.566 6.57 6.57 0 0 1 6.566-6.566h116.808c2.346 0 4.514 1.251 5.686 3.283a6.57 6.57 0 0 1-5.686 9.849zm0 24.883H518.552c-2.346 0-4.514-1.251-5.686-3.283a6.57 6.57 0 0 1 5.686-9.849h203.205c2.348-.003 4.518 1.248 5.693 3.281s1.175 4.538 0 6.571-3.345 3.284-5.693 3.281z"/><use xlink:href="#B" y="207.773"/><use xlink:href="#C" y="233"/><path d="M492.979 376.837h-33.176a6.57 6.57 0 0 1-6.566-6.566 6.57 6.57 0 0 1 6.566-6.566h33.176c2.348-.003 4.518 1.248 5.693 3.281s1.175 4.538 0 6.571-3.345 3.284-5.693 3.281z"/></g><path d="M546.104 281.462c-2.479.006-4.86-.968-6.624-2.71l-43.909-43.359a9.15 9.15 0 0 1 0-13.023l43.731-43.184c3.792-3.726 9.876-3.707 13.644.043h0a9.69 9.69 0 0 1 0 13.687l-32.496 32.497c-2.108 2.113-2.108 5.534 0 7.647l32.32 32.32a9.42 9.42 0 0 1-6.666 16.084zm69.965 0a9.42 9.42 0 0 1-6.666-16.084l32.32-32.32c2.108-2.113 2.108-5.534 0-7.647l-32.496-32.497a9.68 9.68 0 0 1 0-13.687h0c3.768-3.75 9.852-3.769 13.644-.043l43.731 43.184a9.15 9.15 0 0 1 0 13.023l-43.909 43.359a9.4 9.4 0 0 1-6.624 2.71z" fill="#7289da"/><defs ><path id="B" d="M576.61 118.954H459.802a6.57 6.57 0 0 1-6.566-6.566 6.57 6.57 0 0 1 6.566-6.566H576.61a6.57 6.57 0 0 1 6.566 6.566 6.57 6.57 0 0 1-6.566 6.566z"/><path id="C" d="M640.89 94.072h-33.176a6.57 6.57 0 0 1-6.566-6.566 6.57 6.57 0 0 1 6.566-6.566h33.176a6.57 6.57 0 0 1 6.566 6.566 6.57 6.57 0 0 1-6.566 6.566z"/></defs></svg>