<svg xmlns="http://www.w3.org/2000/svg" width="982.487" height="763.014"  xmlns:v="https://vecta.io/nano"><circle cx="559.433" cy="333.061" r="40.03" fill="#e6e6e6"/><path d="M657.539 384.502l-41.832-41.832c6.478-10.076 8.6-22.347 5.883-34.014s-10.044-21.736-20.309-27.912c-19.834-11.849-45.439-6.53-58.914 12.238a44.31 44.31 0 0 0 60.033 62.995l41.832 41.832a9.41 9.41 0 0 0 13.307-13.307zm-56.701-43.394c-10.688 10.689-27.439 12.339-40.007 3.941s-17.454-24.504-11.67-38.469 20.628-21.899 35.454-18.951 25.503 15.96 25.503 31.075c.011 8.405-3.329 16.468-9.28 22.404z" fill="#3f3d56"/><path d="M960.773 446.206c106.98 118.308-203.137 288.808-453.72 288.808S83.107 602.907 53.334 446.206c-72.19-379.947 615.077-621.439 453.719-288.808-235.198 484.848 369.47 195.638 453.72 288.808z" fill="#e6e6e6"/><path d="M912.773 474.206c106.98 118.308-203.137 288.808-453.72 288.808S35.107 630.907 5.334 474.206c-72.19-379.947 615.077-621.439 453.719-288.808-235.198 484.848 369.47 195.638 453.72 288.808z" fill="#3f3d56"/><path d="M149.594 196.825c-75.067-3.305-133.271-19.498-132.507-36.864.458-10.412 21.703-18.784 58.287-22.97a1 1 0 0 1 .228 1.987c-34.462 3.943-56.117 12.017-56.516 21.071-.691 15.705 59.114 31.631 130.597 34.778s132.456-7.461 133.148-23.166c.4-9.092-20.597-19.066-54.798-26.028a1 1 0 0 1 .399-1.96c36.301 7.391 56.857 17.624 56.397 28.076-.765 17.366-60.166 28.381-135.234 25.076zm-66.671 2.909c12.78 24.278 37.516 39.919 64.928 41.057s53.359-12.4 68.107-35.535a1211.87 1211.87 0 0 1-133.036-5.522zm141.34-15.513a77 77 0 1 0-147.75-5.706c48.796 8.283 98.46 10.201 147.749 5.706z" fill="#7289da"/><g fill="#fff"><circle cx="168.834" cy="123.601" r="9"/><circle cx="122.513" cy="152.591" r="15"/></g><circle cx="348.905" cy="142.898" r="10" fill="#7289da"/><g fill="#e6e6e6"><circle cx="122.905" cy="452.898" r="6"/><circle cx="542.905" cy="658.898" r="6"/><circle cx="151.905" cy="339.898" r="3"/><circle cx="399.905" cy="563.898" r="3"/><circle cx="850.905" cy="534.898" r="3"/><circle cx="709.905" cy="623.898" r="3"/><circle cx="562.905" cy="515.898" r="3"/><circle cx="372.905" cy="219.898" r="3"/><circle cx="396.905" cy="71.898" r="3"/><circle cx="382.905" cy="694.898" r="3"/><circle cx="234.905" cy="631.898" r="3"/><circle cx="703.905" cy="523.898" r="3"/></g><g fill="#fff"><circle cx="148.374" cy="224.799" r="9"/><path d="M351.905 362.898c0 26.88-41.559 89.516-53.705 107.247a3.99 3.99 0 0 1-6.591 0c-12.145-17.731-53.705-80.366-53.705-107.247 0-31.48 25.52-57 57-57s57 25.52 57 57z"/></g><circle cx="294.905" cy="358.898" r="29" fill="#7289da"/><ellipse cx="294.405" cy="496.398" rx="33.5" ry="6.5" fill="#fff"/><path d="M816.853 317.92c-.254.492-.468 1.003-.641 1.529l-47.783 13.277-8.611-8.427-14.416 11.333 13.794 16.399a8 8 0 0 0 9.353 2.169l51.616-22.785a10.5 10.5 0 0 0 16.18-11.126 10.5 10.5 0 0 0-19.493-2.369z" fill="#ffb8b8"/><path d="M766.746 333.503l-17.935 13.96a4.5 4.5 0 0 1-6.682-1.337l-11.147-19.727a12.5 12.5 0 0 1 19.769-15.294l16.338 15.594a4.5 4.5 0 0 1-.344 6.805z" fill="#7289da"/><path d="M821.435 311.317l18.188 8.183a3.15 3.15 0 0 1 1.58 4.164l-2.153 4.786c.527.239.763.859.527 1.388l-.861 1.915c-.239.527-.859.763-1.388.527l-.861 1.915c.527.239.763.859.527 1.388l-.861 1.915c-.239.527-.859.763-1.388.527l-11.628 25.846a3.15 3.15 0 0 1-4.164 1.58l-18.188-8.183a3.15 3.15 0 0 1-1.58-4.164l18.089-40.205a3.15 3.15 0 0 1 4.164-1.58z" fill="#3f3d56"/><path d="M804.065 354.719l14.591 6.571c1.522.68 3.308.005 3.999-1.512l15.178-33.748c.678-1.519.003-3.301-1.511-3.989l-4.587-2.068-10.014-4.503a3.02 3.02 0 0 0-3.989 1.522l-15.178 33.737c-.681 1.519-.005 3.302 1.511 3.989z" fill="#f2f2f2"/><path fill="#ffb8b8" d="M773.577 540.443l12.26-.001 5.833-47.288-18.095.001.002 47.288z"/><path d="M770.45 536.44l24.145-.001c4.081 0 7.994 1.621 10.88 4.506s4.507 6.799 4.507 10.88v.5l-39.531.001z" fill="#2f2e41"/><path fill="#ffb8b8" d="M805.577 537.443l12.26-.001 5.833-47.288-18.095.001.002 47.288z"/><g fill="#2f2e41"><path d="M802.45 533.44l24.145-.001a15.39 15.39 0 0 1 10.88 4.506c2.886 2.885 4.507 6.799 4.507 10.88v.5l-39.531.001zm-83.865-103.962a39.41 39.41 0 0 0 36.9 26.81l.62.01c6.33.18 13.76-1.86 21.05-4.79 14.4-5.79 28.23-15.06 31.9-17.61l-8.74 84.03c-.129 1.268.285 2.532 1.138 3.478s2.067 1.489 3.342 1.492h15.53c2.048.001 3.839-1.379 4.36-3.36l25.64-97.65a19.03 19.03 0 0 0-19.71-23.83l-53.26 3.65 3.72-14.88-47.54-3.16-.14.1c-1.14.83-2.25 1.7-3.31 2.61a40.27 40.27 0 0 0-6.99 7.66 38.49 38.49 0 0 0-4.51 35.44z"/><path d="M718.585 429.478c5.354 15.87 20.153 26.622 36.9 26.81 7.814-3.954 15.354-8.428 22.57-13.39l-.9 8.61-7.84 75.42c-.129 1.268.285 2.532 1.138 3.478s2.067 1.489 3.342 1.492h15.53c2.048.001 3.839-1.379 4.36-3.36l25.64-97.65a19.03 19.03 0 0 0-19.71-23.83l-53.26 3.65 3.72-14.88-26.98-1.79a38.49 38.49 0 0 0-4.51 35.44z"/></g><path d="M730.017 389.828l-.358-.043L721.364 349c-.071-.354-6.852-35.533 13.937-53.924l.362-2.517a4.5 4.5 0 0 1 5.787-3.658l19.585 6.075a4.49 4.49 0 0 1 3.019 5.442l-1.904 7.242c2.64 3.1 33.715 40.512 22.89 69.335l-4.848 18.952z" fill="#7289da"/><path d="M811.338 357.997c-.468.295-.913.626-1.329.99l-47.897-12.858-3.131-11.634-18.175 2.431 3.542 21.134a8 8 0 0 0 6.951 6.622l56.032 6.619a10.5 10.5 0 0 0 19.589-1.355 10.5 10.5 0 0 0-15.581-11.95z" fill="#ffb8b8"/><path d="M760.266 345.944l-22.541 2.904a4.5 4.5 0 0 1-5.074-4.548l.43-22.655a12.5 12.5 0 0 1 10.844-13.926 12.5 12.5 0 0 1 13.956 10.806l6.142 21.734a4.5 4.5 0 0 1-3.756 5.686z" fill="#7289da"/><circle cx="753.921" cy="258.804" r="24.561" fill="#ffb8b8"/><path d="M752.628 260.855l-3.075-5.6c-5.825 23.732 4.464 43.373 4.464 43.373l-39.932-18.601.38-6.6-3.951 4.484-5.677-3.129-.75-4.281-4.286 1.062 15.644-28.387c15.182-27.013 37.255-16.7 37.255-16.7 35.115-1.669 30.827 32.975 30.827 32.975z" fill="#2f2e41"/><ellipse cx="556.161" cy="472.391" rx="12.179" ry="47.5" transform="matrix(.841865 -.539688 .539688 .841865 -275.75171 306.36236)" fill="#3f3d56"/></svg>