<svg xmlns="http://www.w3.org/2000/svg" xmlns:xlink="http://www.w3.org/1999/xlink" width="800.53" height="669.894" xmlns:v="https://vecta.io/nano"><path d="M414 158.921h-3.674V58.26c0-32.176-26.084-58.26-58.26-58.26H138.802c-32.176 0-58.26 26.084-58.26 58.26h0v552.234c0 32.176 26.084 58.26 58.26 58.26h213.264c32.176 0 58.26-26.084 58.26-58.26h0V230.573H414z" fill="#3f3d56"/><path d="M354.417 15.157h-27.839a20.67 20.67 0 0 1-19.138 28.477H185.264a20.67 20.67 0 0 1-19.136-28.477h-26c-24.029 0-43.508 19.479-43.508 43.508v551.426c.001 24.028 19.48 43.506 43.508 43.506h214.289a43.51 43.51 0 0 0 43.511-43.505V58.665a43.51 43.51 0 0 0-43.508-43.508z" fill="#fff"/><path d="M377.185 422.82H117.252a4.82 4.82 0 0 1-4.814-4.814V298.654a4.82 4.82 0 0 1 4.814-4.814h259.933a4.82 4.82 0 0 1 4.814 4.814v119.353a4.82 4.82 0 0 1-4.814 4.813zM117.252 295.766a2.89 2.89 0 0 0-2.888 2.888v119.353a2.89 2.89 0 0 0 2.888 2.888h259.933a2.89 2.89 0 0 0 2.888-2.888V298.654a2.89 2.89 0 0 0-2.888-2.888zm258.004-27.942H259.734a4.82 4.82 0 0 1-4.814-4.814v-64.479a4.82 4.82 0 0 1 4.814-4.814h115.522a4.82 4.82 0 0 1 4.814 4.814v64.478a4.82 4.82 0 0 1-4.814 4.815zm-115.526-72.18a2.89 2.89 0 0 0-2.888 2.888v64.478a2.89 2.89 0 0 0 2.888 2.888h115.526a2.89 2.89 0 0 0 2.888-2.888v-64.479a2.89 2.89 0 0 0-2.888-2.888zm-26.952 383.135H117.252a4.82 4.82 0 0 1-4.814-4.814V453.65a4.82 4.82 0 0 1 4.814-4.813h115.526a4.82 4.82 0 0 1 4.814 4.813v120.316a4.82 4.82 0 0 1-4.814 4.814zM117.252 450.762a2.89 2.89 0 0 0-2.888 2.888v120.316a2.89 2.89 0 0 0 2.888 2.888h115.526a2.89 2.89 0 0 0 2.888-2.888V453.65a2.89 2.89 0 0 0-2.888-2.888zm258.004 128.017H259.734a4.82 4.82 0 0 1-4.814-4.814V453.65a4.82 4.82 0 0 1 4.814-4.813h115.522a4.82 4.82 0 0 1 4.814 4.814v120.315a4.82 4.82 0 0 1-4.814 4.814zM259.734 450.762a2.89 2.89 0 0 0-2.888 2.888v120.316a2.89 2.89 0 0 0 2.888 2.888h115.522a2.89 2.89 0 0 0 2.888-2.888V453.65a2.89 2.89 0 0 0-2.888-2.888z" fill="#e6e6e6"/><path d="M590.235 661.507L414.49 485.762c-4.043-4.043-5.793-8.842-3.919-10.727l45.594-45.594c1.884-1.874 6.681-.121 10.727 3.919l175.744 175.744c4.042 4.042 5.793 8.842 3.919 10.727l-45.593 45.593c-1.885 1.875-6.683.122-10.727-3.917z" fill="#fff"/><circle cx="466.195" cy="485.066" r="20.571" fill="#7289da" opacity=".997"/><path d="M590.235 661.507L414.49 485.762c-4.043-4.043-5.793-8.842-3.919-10.727l45.594-45.594c1.884-1.874 6.681-.121 10.727 3.919l175.744 175.744c4.042 4.042 5.793 8.842 3.919 10.727l-45.593 45.593c-1.885 1.875-6.683.122-10.727-3.917zM465.529 434.723c-2.425-2.425-5.306-3.476-6.436-2.352L413.5 477.964c-1.127 1.127-.073 4.009 2.352 6.436l175.744 175.744c2.425 2.425 5.306 3.476 6.436 2.352l45.594-45.594c1.127-1.127.073-4.009-2.352-6.436z" fill="#e6e6e6"/><g fill="#7289da"><use xlink:href="#B"/><use xlink:href="#B" x="-13.865" y="13.865"/></g><g fill="#e6e6e6"><path d="M232.676 267.836H124.303l25.5-44.175a5.21 5.21 0 0 1 9.021 0l10.895 18.871 18.528-32.089a6.52 6.52 0 0 1 11.294 0zm-105.039-1.925h101.7l-31.468-54.5c-.821-1.422-2.337-2.298-3.979-2.298s-3.158.876-3.979 2.298l-20.189 34.972-12.563-21.759a3.28 3.28 0 0 0-5.685 0zm243.67 1.925H262.934l25.5-44.175a5.21 5.21 0 0 1 9.021 0l10.894 18.871 18.529-32.089a6.52 6.52 0 0 1 11.294 0zm-105.039-1.925h101.7l-31.468-54.5c-.821-1.422-2.337-2.298-3.979-2.298s-3.158.876-3.979 2.298l-20.193 34.972-12.563-21.759a3.28 3.28 0 0 0-5.685 0z"/><path d="M232.778 267.824H117.252a4.82 4.82 0 0 1-4.814-4.814v-64.479a4.82 4.82 0 0 1 4.814-4.814h115.526a4.82 4.82 0 0 1 4.814 4.814v64.478a4.82 4.82 0 0 1-4.814 4.814zm-115.526-72.18a2.89 2.89 0 0 0-2.888 2.888v64.478a2.89 2.89 0 0 0 2.888 2.888h115.526a2.89 2.89 0 0 0 2.888-2.888v-64.479a2.89 2.89 0 0 0-2.888-2.888z"/><use xlink:href="#C"/><use xlink:href="#C" y="19.254"/><path d="M175.016 553.967c-11.36 0-20.57-9.209-20.57-20.57s9.209-20.57 20.569-20.57 20.57 9.209 20.571 20.569h0c-.013 11.355-9.215 20.558-20.57 20.571zm0-39.216c-7.541 0-14.34 4.543-17.226 11.51s-1.291 14.987 4.042 20.319 13.352 6.928 20.319 4.042 11.51-9.685 11.51-17.226h0a18.67 18.67 0 0 0-18.645-18.643z"/><use xlink:href="#D"/><use xlink:href="#D" y="-19.256"/></g><path d="M680.534 653.845h-16.187l-7.7-62.434h23.89z" fill="#a0616a"/><path d="M648.017 649.219h35.985v19.655H633.13v-4.768a14.89 14.89 0 0 1 14.887-14.887z" fill="#2f2e41"/><path d="M745.228 653.845h-16.186l-7.7-62.434h23.89z" fill="#a0616a"/><path d="M712.712 649.219h35.985v19.655h-50.872v-4.768a14.89 14.89 0 0 1 14.887-14.887z" fill="#2f2e41"/><path d="M652.333 473.862a12.38 12.38 0 0 0-1.067-18.954l6.935-27.428-15.64-8.279-9.249 38.871a12.45 12.45 0 0 0 19.022 15.79z" fill="#a0616a"/><path d="M750.985 425.955l-1.32 92.421-1.318 121.467-29.046-2.641-14.526-167.677-18.484 167.677h-29.988l-3.02-169 10.564-36.966z" fill="#2f2e41"/><g fill="#ccc"><path d="M660.947 431.8l-.425-.192 16.554-113.227-8.416-34.223a7.49 7.49 0 0 1 4.642-8.8l15.142-5.678 5.349-14.711 42.206 4.548 1.038 11.5c4.574 1.467 42.237 14.01 39.638 28.3-2.565 14.107-17.709 58.489-18.478 60.738l-2.65 63.65-.326.163c-.393.2-29.484 14.5-61.089 14.5-11.127-.003-22.575-1.778-33.185-6.568z"/><path d="M632.764 443.685l13.306-85.162 10.563-66.02c2.7-16.173 15.216-16.36 15.342-16.36h6.89l8.059 36.265-15.877 72.764-14.647 60.3z"/></g><path d="M719.076 435.28a12.38 12.38 0 0 1 15.115-11.486l16.372-23.073 16.448 6.529-23.578 32.258a12.45 12.45 0 0 1-24.357-4.23z" fill="#a0616a"/><path d="M737.036 415.438l29.111-48.957-11.86-31.625 16.152-43.074.6.256c.391.167 9.568 4.263 10.929 18.93l18.562 58.337-49.539 64.267z" fill="#ccc"/><circle cx="713.244" cy="217.304" r="30.389" fill="#a0616a"/><path d="M692.847 202.499c3.146 3.723 8.469 4.773 13.38 5.2 9.974.875 24.476-.544 34.223-2.794.7 6.742-1.2 14.012 2.77 19.559 1.862-6.715 2.944-13.622 3.226-20.584.12-2.986.073-6.075-1.14-8.816s-3.86-5.068-6.907-5.092a17.31 17.31 0 0 1 7.722-3.3l-9.649-4.849 2.478-2.544-17.469-1.069 5.06-3.214c-7.618-1.046-15.325-1.288-22.994-.723-3.56.262-7.282.763-10.166 2.826s-4.551 6.162-2.76 9.19c-4.558.749-8.404 3.801-10.169 8.069-1.286 3.26-1.168 6.881-.772 10.355.658 5.556 1.949 11.018 3.848 16.281" fill="#2f2e41"/><path d="M692.848 668.78H463.023c-2.349-.006-4.253-3.9-4.256-8.708V543.423c0-4.807 1.907-8.7 4.256-8.708h229.825c2.349.006 4.253 3.9 4.256 8.708v116.648c-.003 4.807-1.91 8.703-4.256 8.709z" fill="#fff"/><path d="M317.497 473.649c11.36 0 20.57 9.21 20.57 20.57s-9.21 20.57-20.57 20.57-20.57-9.21-20.57-20.57h0c.013-11.355 9.215-20.557 20.57-20.57zm0 39.215c10.297-.002 18.643-8.35 18.642-18.647a18.65 18.65 0 0 0-18.646-18.643c-10.297.001-18.644 8.348-18.644 18.645h0a18.67 18.67 0 0 0 18.645 18.645z" fill="#e6e6e6"/><circle cx="536.935" cy="580.899" r="20.097" fill="#3f3d56"/><g fill="#7289da"><path d="M599.957 642.829h-98.589a2.02 2.02 0 0 1-.368-.03l46.63-80.765c.579-1.024 1.665-1.658 2.841-1.658s2.262.633 2.841 1.658l32.793 56.793z"/><path d="M654.848 642.83h-85.272l39.244-57.007c.77-.968 1.915-1.563 3.15-1.636s2.442.381 3.322 1.25a3.89 3.89 0 0 1 .31.386z"/></g><g fill="#e6e6e6"><path d="M692.848 668.78H463.023c-2.349-.006-4.253-3.9-4.256-8.708V543.423c0-4.807 1.907-8.7 4.256-8.708h229.825c2.349.006 4.253 3.9 4.256 8.708v116.648c-.003 4.807-1.91 8.703-4.256 8.709zM463.023 538.198c-1.41 0-2.552 2.341-2.554 5.225v116.648c0 2.884 1.144 5.222 2.554 5.225h229.825c1.41 0 2.552-2.34 2.554-5.225V543.423c0-2.884-1.144-5.222-2.554-5.225z"/><path d="M0 667.894h782v2H0zm377.185-500.192H117.252c-2.657 0-4.81-1.239-4.814-2.766V96.362c0-1.527 2.156-2.764 4.814-2.766h259.933c2.657 0 4.81 1.239 4.814 2.766v68.575c-.003 1.526-2.157 2.763-4.814 2.765zm-259.933-73c-1.594 0-2.886.743-2.888 1.659v68.575c0 .916 1.294 1.658 2.888 1.659h259.933c1.594 0 2.886-.743 2.888-1.659V96.362c0-.916-1.294-1.658-2.888-1.659z"/></g><defs ><path id="B" d="M503.529 503.913a3.27 3.27 0 0 0-4.622 0 3.27 3.27 0 0 0 0 4.622l110.394 110.394a3.27 3.27 0 0 0 4.622 0 3.27 3.27 0 0 0 0-4.622z"/><path id="C" d="M141.869 473.649a3.27 3.27 0 0 0-2.83 4.902 3.27 3.27 0 0 0 2.83 1.634h66.293a3.27 3.27 0 0 0 3.268-3.268 3.27 3.27 0 0 0-3.268-3.268z"/><path id="D" d="M350.647 553.969a3.27 3.27 0 0 0 2.83-4.902 3.27 3.27 0 0 0-2.83-1.634h-66.3a3.27 3.27 0 0 0-3.268 3.268 3.27 3.27 0 0 0 3.268 3.268z"/></defs></svg>